<svg width="57" height="51" viewBox="0 0 57 51" fill="none" xmlns="http://www.w3.org/2000/svg">
<path d="M38.0015 40.0482C39.1542 39.1303 40.2886 38.2693 41.3768 37.3514C44.8963 34.3874 48.0797 31.1095 50.4255 27.0842C54.3456 20.3578 53.2854 11.591 47.9522 6.27128C45.5909 3.9169 42.9033 3.1752 39.7606 4.39147C39.6555 4.43267 39.5463 4.45967 39.4133 4.50087C38.7396 3.18231 37.8027 2.21612 36.1486 1.97599C37.8909 0.988484 39.5911 0.36188 41.4272 0.143066C45.3052 -0.320137 48.3948 1.25561 50.9689 4.03767C57.5555 11.1534 58.3342 21.7346 52.903 30.1618C49.9703 34.7128 46.1469 38.4057 41.9356 41.7134C37.9231 44.8635 33.6389 47.5802 29.0984 49.8763C28.8113 50.0213 28.345 50.0866 28.0817 49.9502C20.5343 46.0798 13.5905 41.3511 7.833 34.9984C5.14961 32.0387 2.76593 28.8361 1.5965 24.9259C-0.823594 16.8383 0.72958 9.60463 6.58234 3.53042C10.1887 -0.212152 14.5807 -0.89843 19.313 1.18741C20.1393 1.55257 20.9292 2.00441 21.7149 2.40651C21.3452 3.00186 20.9825 3.49916 20.715 4.04335C20.4475 4.58897 20.2766 5.18289 20.0735 5.7285C19.0876 5.26814 18.1226 4.7481 17.11 4.35594C14.26 3.25051 11.648 3.7606 9.47861 5.90327C4.76727 10.5566 3.32334 16.2032 4.78128 22.6567C4.82749 22.8599 4.89892 23.0716 5.01236 23.2436C7.80639 27.492 11.0724 31.2914 15.3202 34.1146C17.2137 35.3735 19.2934 36.1877 21.5679 36.4264C21.8452 36.4548 22.1267 36.4662 22.4054 36.4534C22.6351 36.4434 22.8619 36.388 23.1182 36.2317C22.9194 36.1664 22.7205 36.101 22.523 36.0342C19.5497 35.0297 16.8817 33.5207 14.8496 31.0541C14.4462 30.5639 14.204 29.8492 14.1087 29.2041C13.9561 28.1583 14.8272 27.5218 15.7221 28.0603C19.5987 30.3891 23.981 31.0654 28.2483 32.1311C29.422 32.4238 30.6292 32.681 31.7272 33.1698C34.4442 34.3803 36.3405 36.479 37.6052 39.1815C37.7214 39.4344 37.8363 39.6901 38.0015 40.0482Z" fill="#FF903B"/>
<path d="M20.7021 28.2706C22.2959 25.6349 24.0522 23.3061 26.5479 21.6408C28.3518 20.4359 30.1458 20.4345 31.8769 21.7545C35.0743 24.1927 37.1666 27.4508 38.4327 31.2473C38.7912 32.3215 38.9019 33.4994 38.9789 34.6404C39.0125 35.1476 38.6792 35.679 38.4537 36.3838C38.0518 35.8666 37.8067 35.5355 37.5462 35.2172C35.6639 32.9211 33.3068 31.4477 30.4119 30.787C27.4372 30.1078 24.4877 29.3064 21.5299 28.5534C21.2862 28.4923 21.0523 28.3914 20.7021 28.2706Z" fill="#FF903B"/>
<path d="M30.7564 11.6535C30.748 9.19117 31.4217 6.93483 32.8894 4.97261C33.3544 4.35027 33.9804 3.79471 34.6415 3.38976C35.9299 2.60118 37.2576 2.97061 38.1231 4.22239C38.7898 5.18432 39.0503 6.28834 39.1105 7.42787C39.2576 10.2057 38.6301 12.7831 36.9369 15.0125C36.5069 15.5794 35.9369 16.0824 35.3375 16.4618C34.0084 17.3015 32.6303 16.9505 31.7396 15.6462C31.0631 14.6558 30.762 13.4268 30.7564 11.6535Z" fill="#FF903B"/>
<path d="M20.803 8.88995C20.7932 6.95046 21.0159 5.60774 21.6279 4.35738C22.7694 2.02715 24.9192 1.7174 26.632 3.64978C27.9065 5.0877 28.4765 6.85526 28.7566 8.72371C29.0297 10.5453 28.9835 12.3554 28.2538 14.0804C27.7748 15.2114 27.1516 16.2728 25.8099 16.466C24.3814 16.672 23.4346 15.8195 22.6643 14.7453C21.2946 12.84 20.8423 10.6476 20.803 8.88995Z" fill="#FF903B"/>
<path d="M45.3839 19.8491C45.2284 22.1751 44.4652 24.187 42.9848 25.9105C42.6375 26.3155 42.2257 26.6878 41.7818 26.9776C39.8028 28.2692 37.7525 27.5502 37.0802 25.2655C36.3198 22.6809 36.8393 20.2299 38.3001 18.0403C38.8827 17.1679 39.6922 16.3538 40.5745 15.8067C42.2383 14.7738 43.9484 15.3819 44.7256 17.202C45.0786 18.0261 45.1724 18.9639 45.3839 19.8491Z" fill="#FF903B"/>
<path d="M22.075 20.7556C21.7585 21.7701 21.568 22.8599 21.0904 23.7991C20.3215 25.3109 18.6885 25.7315 17.2642 24.8335C14.5598 23.1299 13.438 20.5269 13.5122 17.391C13.5346 16.4291 13.7447 15.3961 14.1523 14.5336C14.9155 12.9181 16.4687 12.4989 18.0569 13.3159C19.6241 14.1216 20.5596 15.514 21.1521 17.1068C21.5736 18.2421 21.7585 19.4669 22.075 20.7556Z" fill="#FF903B"/>
</svg>