<?xml version="1.0" encoding="utf-8"?>
<!-- Generator: Adobe Illustrator 27.5.0, SVG Export Plug-In . SVG Version: 6.00 Build 0)  -->
<svg version="1.1" xmlns="http://www.w3.org/2000/svg" xmlns:xlink="http://www.w3.org/1999/xlink" x="0px" y="0px"
	 viewBox="0 0 2200 2200" style="enable-background:new 0 0 2200 2200;" xml:space="preserve">
<g id="background">
	<rect style="fill:#FFFFFF;" width="2200" height="2200"/>
</g>
<g id="Objects">
	<g>
		<path style="fill:#2D2B29;" d="M1340.367,371.261c-0.676,0.015-1.328,0.048-1.426,0.071c0.12,0.063,2.73,0.034,2.861-0.053
			c-0.078-0.023-0.574-0.034-1.196-0.023L1340.367,371.261z"/>
		<path style="fill:#2D2B29;" d="M1304.154,379.709c0.162-0.116-2.568,1.066-2.718,1.213c0.84-0.328,1.843-0.792,2.668-1.185
			L1304.154,379.709z"/>
		<path style="fill:#2D2B29;" d="M1502.619,651.631c-0.035,0.232-0.235,1.931-0.294,2.473c-0.037,0.342-0.036,0.385,0.003,0.092
			c0.035-0.22,0.29-2.399,0.3-2.604L1502.619,651.631z"/>
		<path style="fill:#2D2B29;" d="M1165.274,931.641c56.544,66.572,162.352,64.49,230.255,16.623
			c51.308-34.426,87.568-87.565,110.718-144.176c40.666-101.242,54.389-230.411,27.913-336.698
			c-12.694-50.268-36.987-99.88-82.668-127.756c-75.133-46.413-169.906-20.327-220.913,49.253
			c-19.414,25.579-35.007,53.929-49.059,82.748c-32.232,65.682-52.551,137.05-61.71,209.622
			c-8.975,82.189-11.211,183.824,45.335,250.234L1165.274,931.641z M1419.477,877.406c0.335-0.349,0.429-0.457,0.636-0.658
			c-0.079,0.091-0.56,0.586-0.63,0.654L1419.477,877.406z M1462.45,813.704c-0.028,0.078-0.62,1.315-0.714,1.491
			c-0.016-0.009,0.581-1.218,0.716-1.499L1462.45,813.704z M1484.311,755.217c0.223-0.82,0.66-2.409,0.905-3.245
			c0.05-0.144-0.923,3.364-0.915,3.288L1484.311,755.217z M1159.52,696.77c5.391-76.876,25.613-153.196,60.506-222.007
			c16.671-31.052,33.431-64.525,63.837-84.223c13.392-8.901,28.162-14.565,43.859-17.47c52.18-10.235,108.138,15.888,136.364,60.57
			c7.937,11.873,13.259,22.881,18.157,36.557c8.135,22.04,13.973,45.219,17.674,68.307c11.813,81.335,0.859,181.165-29.795,257.538
			c-7.537,18.598-17.508,38.305-28.768,54.66c-11.453,15.799-26.489,32.963-42.53,45.099
			c-54.935,43.032-143.357,46.081-193.331-6.346c-47.465-50.982-49.714-126.675-45.987-192.488L1159.52,696.77z"/>
		<path style="fill:#2D2B29;" d="M1844.036,985.914c-0.021,0.329,0.514-3.315,0.442-3.076c-0.292,0.803-0.401,2.177-0.443,3.004
			L1844.036,985.914z"/>
		<path style="fill:#2D2B29;" d="M1867.249,734.091c-41.748-54.498-117.834-71.322-178.997-40.479
			c-51.4,24.429-101.753,86.681-133.613,133.504c-64.208,95.221-147.589,292.807-61.447,393.213
			c57.054,63.626,154.72,63.389,223.163,18.049c79.274-51.296,127.587-137.656,158.213-224.79
			c28.274-82.338,49.457-205.275-7.196-279.341L1867.249,734.091z M1511.892,1147.442c-0.086-0.189-0.458-1.036-0.46-1.051
			c-0.012-0.033,0.057,0.12,0.175,0.39c0.188,0.426,0.372,0.858,0.294,0.677L1511.892,1147.442z M1859.128,899.792
			c-4.046,76.508-38.651,171.297-84.719,232.547c-31.61,42.079-77.322,77.697-131.091,82.762
			c-42.084,3.498-87.651-10.245-115.429-43.298c-56.686-67.376-16.125-183.991,16.561-254.952
			c27.551-56.575,65.151-110.323,112.181-152.57c18.454-16.833,42.445-27.917,67.353-30.721
			c52.263-4.977,103.438,26.52,123.179,75.108c11.734,28.478,13.05,60.328,11.975,90.927L1859.128,899.792z"/>
		<path style="fill:#2D2B29;" d="M1684.602,1205.202c0.126-0.01,0.503-0.244,0.746-0.364c1.021-0.544,2.136-1.224,1.9-1.212
			c-0.918,0.326-1.823,1.014-2.616,1.547L1684.602,1205.202z"/>
		<path style="fill:#2D2B29;" d="M1671.891,752.182c-0.586,0.337-2.522,1.64-2.664,1.789c0.043,0.087,2.081-1.297,2.539-1.616
			c0.441-0.312,0.541-0.412,0.235-0.237L1671.891,752.182z"/>
		<path style="fill:#2D2B29;" d="M1585.066,846.754c-0.189,0.273-0.235,0.351-0.134,0.222c0.718-0.956,1.794-2.432,2.499-3.472
			c0.099-0.176-1.551,2.079-2.278,3.124L1585.066,846.754z"/>
		<path style="fill:#2D2B29;" d="M662.797,718.458c12.955,72.424,39.365,145.381,90.484,199.634
			c63.389,70.717,176.946,89.831,252.586,27.408c93.437-77.89,87.324-226.928,66.469-336.022
			c-14.471-72.374-41.45-142.766-80.414-205.616c-33.188-55.535-87.149-91.906-153.504-87.466
			c-10.029,0.692-19.997,2.335-29.73,4.863c-159.169,44.979-171.171,261.142-145.926,397.003L662.797,718.458z M818.023,371.404
			c-0.055,0.004-0.449,0.021-0.404,0.018c-0.032,0.001,0.358-0.016,0.407-0.019L818.023,371.404z M819.338,371.29
			c0.12-0.016,0.967-0.114,0.881-0.103c0.136-0.015,0.189-0.019,0.103-0.008c-0.012,0.005-1.039,0.121-0.935,0.108L819.338,371.29z
			 M745.094,405.124c0.508-0.534,0.672-0.701,0.929-0.954c0.129-0.124,0.175-0.156,0.123-0.083c-0.283,0.403-2.377,2.62-2.775,2.99
			c-0.321,0.313-0.281,0.232,0.048-0.141c0.421-0.478,1.022-1.12,1.497-1.623L745.094,405.124z M695.497,571.527
			c1.217-48.222,8.713-97.765,31.098-140.981c19.232-35.897,58.721-58.08,98.975-59.452c47.278-2.42,92.756,23.495,118.773,62.416
			c19.182,27.525,34.84,57.384,48.195,88.107c26.288,61.268,43.043,127.405,47.59,194.1c2.989,45.747,3.204,92.934-11.752,136.735
			c-14.879,45.863-51.93,71.07-99.031,75.753c-82.515,5.918-146.365-47.56-183.284-117.29
			c-37.378-72.145-51.245-158.56-50.569-239.188L695.497,571.527z"/>
		<path style="fill:#2D2B29;" d="M1011.805,885.367c0.468-0.616,1.498-1.952,1.93-2.715c-0.028,0.028-0.084,0.084-0.112,0.112
			c-0.324,0.372-1.63,2.126-2.048,2.763c-0.286,0.429-0.233,0.422,0.129-0.033L1011.805,885.367z"/>
		<path style="fill:#2D2B29;" d="M1022.908,866.464c0.262-0.578,0.528-1.176,0.751-1.698c0.183-0.428,0.192-0.471-0.034,0.02
			c-0.303,0.659-0.858,1.886-1.198,2.679c-0.103,0.256-0.022,0.079,0.057-0.081c0.075-0.158,0.187-0.4,0.32-0.692L1022.908,866.464z
			"/>
		<path style="fill:#2D2B29;" d="M683.45,1174.515c0.278-0.401,0.82-1.082,0.956-1.381c-0.509,0.602-2.031,2.671-2.283,3.102
			c0.137-0.146,0.216-0.256,0.421-0.517c0.2-0.258,0.459-0.6,0.739-0.978L683.45,1174.515z"/>
		<path style="fill:#2D2B29;" d="M662.958,1194.383c0.479-0.224,3.243-2.431,2.669-2.059c-0.88,0.612-1.868,1.368-2.649,2.034
			L662.958,1194.383z"/>
		<path style="fill:#2D2B29;" d="M346.8,803.914c0.041-0.11,0.511-1.607,0.661-2.099c0.115-0.374,0.144-0.483,0.059-0.226
			c-0.052,0.143-0.677,2.15-0.715,2.298L346.8,803.914z"/>
		<path style="fill:#2D2B29;" d="M695.276,1217.541c66.991-70.666,53.094-178.08,23.555-262.675
			c-30.62-88.292-81.229-170.342-150.092-233.883c-8.903-7.973-18.284-15.292-28.473-21.446
			c-82.507-50.123-182.858-7.105-221.866,76.972c-10.088,20.469-15.642,42.79-18.431,65.359
			c-11.832,95.379,17.675,191.912,62.164,275.561c38.401,69.763,97.572,137.917,180.153,150.927
			c55.476,9.158,114.292-9.513,152.852-50.67L695.276,1217.541z M341.572,834.902c-0.003-0.06,0.003-0.128-0.001-0.186
			C341.574,834.758,341.574,834.822,341.572,834.902z M341.479,835.737c0.095-0.908,0.124-0.915-0.015,0.53
			c-0.093,0.975-0.197,1.871-0.199,1.77c0.037-0.633,0.117-1.327,0.19-2.063L341.479,835.737z M613.803,1213.55
			c-107.948,17.642-189.065-80.686-228.653-169.467c-23.109-52.288-40.874-107.969-44.137-165.34
			c-1.07-32.244-1.254-67.6,15.134-96.56c22.962-40.716,75.523-57.163,119.652-45.329c41.81,10.821,72.445,43.892,99.834,75.397
			c57.326,67.736,98.383,149.006,117.788,235.606c4.369,19.766,7.076,39.872,7.018,60.115c-0.169,21.927-4,48.923-17.309,66.708
			c-16.178,21.937-42.714,34.275-69.134,38.837L613.803,1213.55z"/>
		<path style="fill:#2D2B29;" d="M1428.922,1782.206c2.346-1.456-2.082,0.934-2.352,1.238c-0.001,0.064,1.147-0.517,2.149-1.117
			L1428.922,1782.206z"/>
		<path style="fill:#2D2B29;" d="M1540.178,1484.813c-0.04-0.54-0.05-1.218-0.217-1.612c-0.214,0.655-0.219,1.703-0.034,2.331
			c0.118,0.267,0.261,0.032,0.254-0.511L1540.178,1484.813z"/>
		<path style="fill:#2D2B29;" d="M726.76,1342.32c-1.645,2.376,1.582-2.199,1.503-2.12c-0.422,0.571-0.91,1.275-1.349,1.899
			L726.76,1342.32z"/>
		<path style="fill:#2D2B29;" d="M1584.53,1469.614c-11.774-122.069-80.171-234.556-179.269-305.793
			c-71.629-51.501-157.917-85.234-246.589-87.527c-52.478-0.921-105.698,2.591-156.491,16.408
			c-159.398,46.627-292.612,172.824-356.482,325.194c-20.414,50.333-32.663,104.626-32.355,159.096
			c1.162,87.426,35.893,176.082,99.961,236.515c70.214,68.211,174.989,85.38,267.081,57.987
			c30.373-8.451,58.557-22.288,86.121-37.057c5.748-2.754,11.641-5.139,17.752-6.723c28.059-7.404,51.082,2.505,75.717,14.962
			c78.517,38.117,173.582,43.944,251.266,0.464c126.969-73.358,187.819-231.24,173.308-373.326L1584.53,1469.614z M948.376,1161.607
			c0.376-0.194,1.556-0.656,1.991-0.829c0.638-0.249,0.581-0.194-0.147,0.116c-0.72,0.307-1.799,0.724-1.843,0.719L948.376,1161.607
			z M657.783,1521.49c0,0.018-0.001,0.048-0.002,0.082C657.78,1521.544,657.783,1521.517,657.783,1521.49z M659.403,1590.83
			c0.008,0.064,0.015,0.114,0.017,0.142C659.416,1590.924,659.408,1590.877,659.403,1590.83z M685.398,1678.327
			c-0.174-0.336-0.629-1.309-0.912-1.919c-0.1-0.218-0.097-0.225,0.011-0.006c0.212,0.423,0.848,1.784,0.894,1.904L685.398,1678.327
			z M1543.042,1552.629c-4.36,93.993-47.878,192.979-132.27,240.797c-69.076,39.275-156.705,29.524-225.681-5.081
			c-32.128-17.009-63.495-23.732-98.825-12.179c-15.974,5.066-30.471,13.874-45.227,21.561
			c-74.432,38.009-168.814,44.075-243.409,3.313c-86.927-46.865-137.727-145.976-140.874-242.861
			c-1.252-41.17,6.364-82.486,20.537-121.214c44.899-121.933,154.669-228.742,274.521-276.711
			c31.616-12.609,64.96-21.385,98.834-25.18c43.94-4.781,88.74-6.241,132.755-0.091c43.564,5.891,85.489,20.677,124.783,40.118
			c141.952,69.011,243.8,216.687,234.862,377.331L1543.042,1552.629z"/>
		<path style="fill:#2D2B29;" d="M669.367,1461.031c-0.14,0.368-0.826,3.093-0.937,3.685c0.291-0.962,0.707-2.683,0.929-3.639
			L669.367,1461.031z"/>
		<path style="fill:#2D2B29;" d="M1461.681,1754.008c-0.846,0.732-1.896,1.764-2.718,2.586c-0.18,0.19,0.056-0.01,0.552-0.471
			c0.601-0.564,1.552-1.458,2.153-2.095L1461.681,1754.008z"/>
		<path style="fill:#2D2B29;" d="M1487.31,1722.829c0.323-0.449,1.378-1.933,1.557-2.215c0.027-0.044-0.323,0.444-0.364,0.502
			c-0.197,0.271-2.133,3.004-1.299,1.86L1487.31,1722.829z"/>
	</g>
</g>
</svg>
